<svg xmlns="http://www.w3.org/2000/svg" width="375" viewBox="0 0 375 375" height="375" version="1.0"><defs><clipPath id="a"><path d="M 145.085938 82.25 L 311.585938 82.25 L 311.585938 293 L 145.085938 293 Z M 145.085938 82.25"/></clipPath><clipPath id="b"><path d="M 123.808594 160.152344 L 178.558594 160.152344 L 178.558594 214.902344 L 123.808594 214.902344 Z M 123.808594 160.152344"/></clipPath></defs><path fill="#FFF" d="M-37.5 -37.5H412.5V412.5H-37.5z"/><path fill="#FFF" d="M-37.5 -37.5H412.5V412.5H-37.5z"/><path fill="#FFF" d="M-37.5 -37.5H412.5V412.5H-37.5z"/><g><g><g><path d="M 48.980469 -18.046875 C 48.980469 -44.097656 48.980469 -70.285156 48.980469 -96.46875 L 63.09375 -96.46875 C 75.304688 -96.46875 79.917969 -89.144531 81.003906 -86.292969 L 82.222656 -86.292969 L 81.273438 -101.761719 L 0.949219 -101.761719 L 0 -86.292969 L 1.222656 -86.292969 C 2.304688 -89.144531 6.917969 -96.46875 18.996094 -96.46875 L 33.242188 -96.46875 C 33.242188 -70.285156 33.242188 -44.097656 33.242188 -18.046875 C 33.242188 -11.125 32.835938 -5.15625 30.800781 0 L 51.289062 0 C 49.386719 -5.15625 48.980469 -11.125 48.980469 -18.046875 Z M 48.980469 -18.046875" transform="translate(66.938 242.782)"/></g></g></g><g><g><g><path d="M 43.148438 -37.855469 C 43.148438 -24.015625 39.210938 -8.140625 23.203125 -6.785156 C 12.617188 -5.835938 5.425781 -13.566406 1.222656 -23.878906 L 0 -23.878906 C 3.664062 -7.328125 14.789062 0 26.324219 0 C 43.011719 0 58.886719 -13.027344 58.886719 -35.277344 L 58.886719 -83.714844 C 58.886719 -90.636719 59.429688 -96.605469 61.328125 -101.761719 L 40.839844 -101.761719 C 42.738281 -96.605469 43.148438 -90.636719 43.148438 -83.714844 Z M 43.148438 -37.855469" transform="translate(153.908 242.782)"/></g></g></g><path fill="#FFF" d="M 206.105469 83.65625 C 184.996094 83.65625 164.335938 90.0625 146.988281 102.144531 C 194.144531 87.703125 244.054688 114.285156 258.480469 161.492188 C 272.910156 208.699219 246.410156 258.664062 199.253906 273.105469 C 182.246094 278.332031 164.054688 278.332031 146.988281 273.105469 C 164.335938 285.1875 184.996094 291.652344 206.105469 291.597656 C 263.476562 291.597656 309.960938 245.0625 309.960938 187.625 C 309.960938 130.191406 263.476562 83.65625 206.105469 83.65625 Z M 206.105469 83.65625"/><g clip-path="url(#a)"><path fill="#070404" d="M 205.9375 293 C 184.492188 293 163.832031 286.539062 146.148438 274.230469 C 145.585938 273.835938 145.363281 273.105469 145.699219 272.488281 C 145.980469 271.871094 146.707031 271.53125 147.382812 271.757812 C 164.222656 276.929688 181.964844 276.929688 198.804688 271.757812 C 221.261719 264.902344 239.675781 249.671875 250.679688 228.933594 C 261.683594 208.195312 263.984375 184.367188 257.132812 161.886719 C 250.285156 139.40625 235.070312 120.972656 214.355469 109.957031 C 193.640625 98.886719 169.839844 96.636719 147.382812 103.496094 C 146.707031 103.71875 146.035156 103.382812 145.699219 102.765625 C 145.417969 102.144531 145.585938 101.414062 146.148438 101.023438 C 163.832031 88.714844 184.492188 82.25 205.9375 82.25 C 205.992188 82.25 206.046875 82.25 206.046875 82.25 C 264.097656 82.25 311.308594 129.515625 311.308594 187.625 C 311.308594 245.738281 264.152344 293 206.105469 293 C 206.046875 293 205.992188 293 205.9375 293 Z M 155.1875 276.648438 C 170.625 285.527344 188.027344 290.191406 205.992188 290.191406 C 206.046875 290.191406 206.105469 290.191406 206.105469 290.191406 C 262.578125 290.191406 308.558594 244.164062 308.558594 187.625 C 308.558594 131.089844 262.578125 85.0625 206.105469 85.0625 C 206.105469 85.0625 205.992188 85.0625 205.992188 85.0625 C 188.027344 85.0625 170.625 89.726562 155.1875 98.605469 C 175.734375 94.390625 196.898438 97.480469 215.703125 107.429688 C 237.09375 118.78125 252.753906 137.832031 259.886719 161.042969 C 266.957031 184.253906 264.601562 208.8125 253.261719 230.226562 C 241.921875 251.636719 222.890625 267.316406 199.703125 274.457031 C 185.109375 278.894531 169.894531 279.625 155.1875 276.648438 Z M 155.1875 276.648438"/></g><g clip-path="url(#b)"><path d="M 178.550781 187.523438 C 158.023438 191.304688 154.957031 194.367188 151.179688 214.898438 C 147.398438 194.367188 144.335938 191.304688 123.808594 187.523438 C 144.335938 183.746094 147.398438 180.679688 151.179688 160.152344 C 154.957031 180.679688 158.023438 183.746094 178.550781 187.523438 Z M 178.550781 187.523438"/></g></svg>